<svg width="15" height="12" viewBox="0 0 15 12" fill="none" xmlns="http://www.w3.org/2000/svg">
<path d="M15 3.456V9.5625C15 10.1851 14.7618 10.7841 14.3342 11.2367C13.9067 11.6892 13.3221 11.961 12.7005 11.9963L12.5625 12H2.4375C1.8149 12 1.21588 11.7618 0.763327 11.3342C0.310775 10.9067 0.038999 10.3221 0.00375009 9.7005L0 9.5625V3.456L7.239 7.248C7.31953 7.29018 7.40909 7.31222 7.5 7.31222C7.59091 7.31222 7.68047 7.29018 7.761 7.248L15 3.456ZM2.4375 1.77038e-08H12.5625C13.1667 -7.2761e-05 13.7494 0.224247 14.1975 0.62945C14.6457 1.03465 14.9274 1.59186 14.988 2.193L7.5 6.1155L0.012 2.193C0.0701425 1.61573 0.332287 1.07814 0.751312 0.676847C1.17034 0.275557 1.71876 0.0368902 2.298 0.0037501L2.4375 1.77038e-08Z" fill="white"/>
</svg>
